<?xml version="1.0" encoding="UTF-8"?>
<svg xmlns="http://www.w3.org/2000/svg" xmlns:xlink="http://www.w3.org/1999/xlink"
     width="4449" height="400" viewBox="0 -400 4449 400">
<defs>
</defs>
<path d="M210,-20 L210,-320" stroke="grey" stroke-width="1" fill="none" />
<text x="160" y="-330" font-size="22" fill="grey" dy="0em">1000</text>
<path d="M410,-20 L410,-320" stroke="grey" stroke-width="1" fill="none" />
<text x="360" y="-330" font-size="22" fill="grey" dy="0em">2000</text>
<path d="M610,-20 L610,-320" stroke="grey" stroke-width="1" fill="none" />
<text x="560" y="-330" font-size="22" fill="grey" dy="0em">3000</text>
<path d="M810,-20 L810,-320" stroke="grey" stroke-width="1" fill="none" />
<text x="760" y="-330" font-size="22" fill="grey" dy="0em">4000</text>
<path d="M1010,-20 L1010,-320" stroke="grey" stroke-width="1" fill="none" />
<text x="960" y="-330" font-size="22" fill="grey" dy="0em">5000</text>
<path d="M1210,-20 L1210,-320" stroke="grey" stroke-width="1" fill="none" />
<text x="1160" y="-330" font-size="22" fill="grey" dy="0em">6000</text>
<path d="M1410,-20 L1410,-320" stroke="grey" stroke-width="1" fill="none" />
<text x="1360" y="-330" font-size="22" fill="grey" dy="0em">7000</text>
<path d="M1610,-20 L1610,-320" stroke="grey" stroke-width="1" fill="none" />
<text x="1560" y="-330" font-size="22" fill="grey" dy="0em">8000</text>
<path d="M1810,-20 L1810,-320" stroke="grey" stroke-width="1" fill="none" />
<text x="1760" y="-330" font-size="22" fill="grey" dy="0em">9000</text>
<path d="M2010,-20 L2010,-320" stroke="grey" stroke-width="1" fill="none" />
<text x="1960" y="-330" font-size="22" fill="grey" dy="0em">10000</text>
<path d="M2210,-20 L2210,-320" stroke="grey" stroke-width="1" fill="none" />
<text x="2160" y="-330" font-size="22" fill="grey" dy="0em">11000</text>
<path d="M2410,-20 L2410,-320" stroke="grey" stroke-width="1" fill="none" />
<text x="2360" y="-330" font-size="22" fill="grey" dy="0em">12000</text>
<path d="M2610,-20 L2610,-320" stroke="grey" stroke-width="1" fill="none" />
<text x="2560" y="-330" font-size="22" fill="grey" dy="0em">13000</text>
<path d="M2810,-20 L2810,-320" stroke="grey" stroke-width="1" fill="none" />
<text x="2760" y="-330" font-size="22" fill="grey" dy="0em">14000</text>
<path d="M3010,-20 L3010,-320" stroke="grey" stroke-width="1" fill="none" />
<text x="2960" y="-330" font-size="22" fill="grey" dy="0em">15000</text>
<path d="M3210,-20 L3210,-320" stroke="grey" stroke-width="1" fill="none" />
<text x="3160" y="-330" font-size="22" fill="grey" dy="0em">16000</text>
<path d="M3410,-20 L3410,-320" stroke="grey" stroke-width="1" fill="none" />
<text x="3360" y="-330" font-size="22" fill="grey" dy="0em">17000</text>
<path d="M3610,-20 L3610,-320" stroke="grey" stroke-width="1" fill="none" />
<text x="3560" y="-330" font-size="22" fill="grey" dy="0em">18000</text>
<path d="M3810,-20 L3810,-320" stroke="grey" stroke-width="1" fill="none" />
<text x="3760" y="-330" font-size="22" fill="grey" dy="0em">19000</text>
<path d="M4010,-20 L4010,-320" stroke="grey" stroke-width="1" fill="none" />
<text x="3960" y="-330" font-size="22" fill="grey" dy="0em">20000</text>
<path d="M4210,-20 L4210,-320" stroke="grey" stroke-width="1" fill="none" />
<text x="4160" y="-330" font-size="22" fill="grey" dy="0em">21000</text>
<path d="M4410,-20 L4410,-320" stroke="grey" stroke-width="1" fill="none" />
<text x="4360" y="-330" font-size="22" fill="grey" dy="0em">22000</text>
<text x="16.0" y="-260" font-size="38" fill="black" dy="0em">I-E: NZ_CP085987.1@52 (4214411-4236157)</text>
<path d="M40.2,-200 L191.8,-200 L191.8,-150 L40.2,-150 L10.2,-175.0 L40.2,-200 Z" fill="#ff80e6" fill-opacity="0.8" stroke="#ff80e6" stroke-width="4" />
<text x="10.2" y="-210" font-size="26" fill="black" dy="0em">CysH</text>
<path d="M242.0,-200 L421.20000000000005,-200 L451.20000000000005,-175.0 L421.20000000000005,-150 L242.0,-150 L242.0,-200 Z" fill="#d3c9c1" fill-opacity="0.8" stroke="#d3c9c1" stroke-width="4" />
<text x="242.0" y="-120" font-size="20" fill="black" dy="0em">4012</text>
<path d="M617.8000000000001,-200 L720.8000000000001,-200 L750.8000000000001,-175.0 L720.8000000000001,-150 L617.8000000000001,-150 L617.8000000000001,-200 Z" fill="#d3c9c1" fill-opacity="0.8" stroke="#d3c9c1" stroke-width="4" />
<text x="617.8000000000001" y="-210" font-size="20" fill="black" dy="0em">4013</text>
<path d="M767.2,-200 L793.4000000000001,-200 L823.4000000000001,-175.0 L793.4000000000001,-150 L767.2,-150 L767.2,-200 Z" fill="#d3c9c1" fill-opacity="0.8" stroke="#d3c9c1" stroke-width="4" />
<text x="767.2" y="-120" font-size="20" fill="black" dy="0em">4014</text>
<path d="M884.0,-200 L912.6,-200 L912.6,-150 L884.0,-150 L854.0,-175.0 L884.0,-200 Z" fill="#5b5ea6" fill-opacity="0.8" stroke="#5b5ea6" stroke-width="4" />
<text x="854.0" y="-210" font-size="26" fill="black" dy="0em">Cas2</text>
<path d="M942.6,-200 L1096.6000000000001,-200 L1096.6000000000001,-150 L942.6,-150 L912.6,-175.0 L942.6,-200 Z" fill="#5b5ea6" fill-opacity="0.8" stroke="#5b5ea6" stroke-width="4" />
<text x="912.6" y="-120" font-size="26" fill="black" dy="0em">Cas1</text>
<path d="M1126.0,-200 L1226.0,-200 L1226.0,-150 L1126.0,-150 L1096.0,-175.0 L1126.0,-200 Z" fill="#dd1424" fill-opacity="0.8" stroke="#dd1424" stroke-width="4" />
<text x="1096.0" y="-210" font-size="26" fill="black" dy="0em">Cas6</text>
<path d="M1252.4,-200 L1371.6000000000001,-200 L1371.6000000000001,-150 L1252.4,-150 L1222.4,-175.0 L1252.4,-200 Z" fill="#efc050" fill-opacity="0.8" stroke="#efc050" stroke-width="4" />
<text x="1222.4" y="-120" font-size="26" fill="black" dy="0em">Cas5</text>
<path d="M1403.8000000000002,-200 L1585.4,-200 L1585.4,-150 L1403.8000000000002,-150 L1373.8000000000002,-175.0 L1403.8000000000002,-200 Z" fill="#efc050" fill-opacity="0.8" stroke="#efc050" stroke-width="4" />
<text x="1373.8000000000002" y="-210" font-size="26" fill="black" dy="0em">Cas7</text>
<path d="M1618.2,-200 L1700.2,-200 L1700.2,-150 L1618.2,-150 L1588.2,-175.0 L1618.2,-200 Z" fill="#efc050" fill-opacity="0.8" stroke="#efc050" stroke-width="4" />
<text x="1588.2" y="-120" font-size="26" fill="black" dy="0em">Cse2gr11</text>
<path d="M1729.6000000000001,-200 L1991.0,-200 L1991.0,-150 L1729.6000000000001,-150 L1699.6000000000001,-175.0 L1729.6000000000001,-200 Z" fill="#efc050" fill-opacity="0.8" stroke="#efc050" stroke-width="4" />
<text x="1699.6000000000001" y="-210" font-size="26" fill="black" dy="0em">Cse1</text>
<path d="M2043.0,-200 L2099.2000000000003,-200 L2099.2000000000003,-150 L2043.0,-150 L2013.0,-175.0 L2043.0,-200 Z" fill="#efc050" fill-opacity="0.3" stroke="#efc050" stroke-width="4" />
<text x="2013.0" y="-120" font-size="26" fill="black" dy="0em">(Cas3)</text>
<path d="M2136.6,-200 L2545.6000000000004,-200 L2545.6000000000004,-150 L2136.6,-150 L2106.6,-175.0 L2136.6,-200 Z" fill="#efc050" fill-opacity="0.8" stroke="#efc050" stroke-width="4" />
<text x="2106.6" y="-210" font-size="26" fill="black" dy="0em">Cas3</text>
<path d="M2634.6000000000004,-200 L2795.2000000000003,-200 L2825.2000000000003,-175.0 L2795.2000000000003,-150 L2634.6000000000004,-150 L2634.6000000000004,-200 Z" fill="#d3c9c1" fill-opacity="0.8" stroke="#d3c9c1" stroke-width="4" />
<text x="2634.6000000000004" y="-120" font-size="20" fill="black" dy="0em">4024</text>
<path d="M2872.8,-200 L2989.6000000000004,-200 L2989.6000000000004,-150 L2872.8,-150 L2842.8,-175.0 L2872.8,-200 Z" fill="#ff80e6" fill-opacity="0.8" stroke="#ff80e6" stroke-width="4" />
<text x="2842.8" y="-210" font-size="26" fill="black" dy="0em">CysH</text>
<path d="M3034.8,-200 L3347.2000000000003,-200 L3347.2000000000003,-150 L3034.8,-150 L3004.8,-175.0 L3034.8,-200 Z" fill="#d3c9c1" fill-opacity="0.8" stroke="#d3c9c1" stroke-width="4" />
<text x="3004.8" y="-120" font-size="20" fill="black" dy="0em">4026</text>
<path d="M3377.2000000000003,-200 L3707.0,-200 L3707.0,-150 L3377.2000000000003,-150 L3347.2000000000003,-175.0 L3377.2000000000003,-200 Z" fill="#d3c9c1" fill-opacity="0.8" stroke="#d3c9c1" stroke-width="4" />
<text x="3347.2000000000003" y="-210" font-size="20" fill="black" dy="0em">4027</text>
<path d="M3791.8,-200 L3834.2000000000003,-200 L3864.2000000000003,-175.0 L3834.2000000000003,-150 L3791.8,-150 L3791.8,-200 Z" fill="#d3c9c1" fill-opacity="0.8" stroke="#d3c9c1" stroke-width="4" />
<text x="3791.8" y="-120" font-size="20" fill="black" dy="0em">4028</text>
<path d="M3911.8,-200 L4041.2000000000003,-200 L4041.2000000000003,-150 L3911.8,-150 L3881.8,-175.0 L3911.8,-200 Z" fill="#d3c9c1" fill-opacity="0.8" stroke="#d3c9c1" stroke-width="4" />
<text x="3881.8" y="-210" font-size="20" fill="black" dy="0em">4029</text>
<path d="M454.20000000000005,-200 L569.6,-200 L569.6,-150 L454.20000000000005,-150 L454.20000000000005,-200 Z" fill="white" stroke="white" stroke-width="4" />
<path d="M454.20000000000005,-200 L460.27368421052637,-200 L460.27368421052637,-150 L454.20000000000005,-150 L454.20000000000005,-200 Z" fill="black" />
<path d="M460.27368421052637,-200 L466.3473684210527,-200 L466.3473684210527,-150 L460.27368421052637,-150 L460.27368421052637,-200 Z" fill="#f0f0f0" />
<path d="M466.3473684210527,-200 L472.421052631579,-200 L472.421052631579,-150 L466.3473684210527,-150 L466.3473684210527,-200 Z" fill="black" />
<path d="M472.421052631579,-200 L478.49473684210534,-200 L478.49473684210534,-150 L472.421052631579,-150 L472.421052631579,-200 Z" fill="#f0f0f0" />
<path d="M478.49473684210534,-200 L484.56842105263166,-200 L484.56842105263166,-150 L478.49473684210534,-150 L478.49473684210534,-200 Z" fill="black" />
<path d="M484.56842105263166,-200 L490.642105263158,-200 L490.642105263158,-150 L484.56842105263166,-150 L484.56842105263166,-200 Z" fill="#f0f0f0" />
<path d="M490.642105263158,-200 L496.7157894736843,-200 L496.7157894736843,-150 L490.642105263158,-150 L490.642105263158,-200 Z" fill="black" />
<path d="M496.7157894736843,-200 L502.78947368421063,-200 L502.78947368421063,-150 L496.7157894736843,-150 L496.7157894736843,-200 Z" fill="#f0f0f0" />
<path d="M502.78947368421063,-200 L508.86315789473696,-200 L508.86315789473696,-150 L502.78947368421063,-150 L502.78947368421063,-200 Z" fill="black" />
<path d="M508.86315789473696,-200 L514.9368421052633,-200 L514.9368421052633,-150 L508.86315789473696,-150 L508.86315789473696,-200 Z" fill="#f0f0f0" />
<path d="M514.9368421052633,-200 L521.0105263157895,-200 L521.0105263157895,-150 L514.9368421052633,-150 L514.9368421052633,-200 Z" fill="black" />
<path d="M521.0105263157895,-200 L527.0842105263158,-200 L527.0842105263158,-150 L521.0105263157895,-150 L521.0105263157895,-200 Z" fill="#f0f0f0" />
<path d="M527.0842105263158,-200 L533.1578947368421,-200 L533.1578947368421,-150 L527.0842105263158,-150 L527.0842105263158,-200 Z" fill="black" />
<path d="M533.1578947368421,-200 L539.2315789473683,-200 L539.2315789473683,-150 L533.1578947368421,-150 L533.1578947368421,-200 Z" fill="#f0f0f0" />
<path d="M539.2315789473683,-200 L545.3052631578946,-200 L545.3052631578946,-150 L539.2315789473683,-150 L539.2315789473683,-200 Z" fill="black" />
<path d="M545.3052631578946,-200 L551.3789473684209,-200 L551.3789473684209,-150 L545.3052631578946,-150 L545.3052631578946,-200 Z" fill="#f0f0f0" />
<path d="M551.3789473684209,-200 L557.4526315789471,-200 L557.4526315789471,-150 L551.3789473684209,-150 L551.3789473684209,-200 Z" fill="black" />
<path d="M557.4526315789471,-200 L563.5263157894734,-200 L563.5263157894734,-150 L557.4526315789471,-150 L557.4526315789471,-200 Z" fill="#f0f0f0" />
<path d="M563.5263157894734,-200 L569.5999999999997,-200 L569.5999999999997,-150 L563.5263157894734,-150 L563.5263157894734,-200 Z" fill="black" />
<text x="454.20000000000005" y="-210" font-size="26" fill="black" dy="0em">CRISPR: I-E</text>
<path d="M572.4,-200 L834.6,-200 L834.6,-150 L572.4,-150 L572.4,-200 Z" fill="white" stroke="white" stroke-width="4" />
<path d="M572.4,-200 L578.4976744186047,-200 L578.4976744186047,-150 L572.4,-150 L572.4,-200 Z" fill="black" />
<path d="M578.4976744186047,-200 L584.5953488372094,-200 L584.5953488372094,-150 L578.4976744186047,-150 L578.4976744186047,-200 Z" fill="#f0f0f0" />
<path d="M584.5953488372094,-200 L590.6930232558141,-200 L590.6930232558141,-150 L584.5953488372094,-150 L584.5953488372094,-200 Z" fill="black" />
<path d="M590.6930232558141,-200 L596.7906976744188,-200 L596.7906976744188,-150 L590.6930232558141,-150 L590.6930232558141,-200 Z" fill="#f0f0f0" />
<path d="M596.7906976744188,-200 L602.8883720930235,-200 L602.8883720930235,-150 L596.7906976744188,-150 L596.7906976744188,-200 Z" fill="black" />
<path d="M602.8883720930235,-200 L608.9860465116282,-200 L608.9860465116282,-150 L602.8883720930235,-150 L602.8883720930235,-200 Z" fill="#f0f0f0" />
<path d="M608.9860465116282,-200 L615.0837209302329,-200 L615.0837209302329,-150 L608.9860465116282,-150 L608.9860465116282,-200 Z" fill="black" />
<path d="M615.0837209302329,-200 L621.1813953488376,-200 L621.1813953488376,-150 L615.0837209302329,-150 L615.0837209302329,-200 Z" fill="#f0f0f0" />
<path d="M621.1813953488376,-200 L627.2790697674423,-200 L627.2790697674423,-150 L621.1813953488376,-150 L621.1813953488376,-200 Z" fill="black" />
<path d="M627.2790697674423,-200 L633.376744186047,-200 L633.376744186047,-150 L627.2790697674423,-150 L627.2790697674423,-200 Z" fill="#f0f0f0" />
<path d="M633.376744186047,-200 L639.4744186046516,-200 L639.4744186046516,-150 L633.376744186047,-150 L633.376744186047,-200 Z" fill="black" />
<path d="M639.4744186046516,-200 L645.5720930232563,-200 L645.5720930232563,-150 L639.4744186046516,-150 L639.4744186046516,-200 Z" fill="#f0f0f0" />
<path d="M645.5720930232563,-200 L651.669767441861,-200 L651.669767441861,-150 L645.5720930232563,-150 L645.5720930232563,-200 Z" fill="black" />
<path d="M651.669767441861,-200 L657.7674418604657,-200 L657.7674418604657,-150 L651.669767441861,-150 L651.669767441861,-200 Z" fill="#f0f0f0" />
<path d="M657.7674418604657,-200 L663.8651162790704,-200 L663.8651162790704,-150 L657.7674418604657,-150 L657.7674418604657,-200 Z" fill="black" />
<path d="M663.8651162790704,-200 L669.9627906976751,-200 L669.9627906976751,-150 L663.8651162790704,-150 L663.8651162790704,-200 Z" fill="#f0f0f0" />
<path d="M669.9627906976751,-200 L676.0604651162798,-200 L676.0604651162798,-150 L669.9627906976751,-150 L669.9627906976751,-200 Z" fill="black" />
<path d="M676.0604651162798,-200 L682.1581395348845,-200 L682.1581395348845,-150 L676.0604651162798,-150 L676.0604651162798,-200 Z" fill="#f0f0f0" />
<path d="M682.1581395348845,-200 L688.2558139534892,-200 L688.2558139534892,-150 L682.1581395348845,-150 L682.1581395348845,-200 Z" fill="black" />
<path d="M688.2558139534892,-200 L694.3534883720939,-200 L694.3534883720939,-150 L688.2558139534892,-150 L688.2558139534892,-200 Z" fill="#f0f0f0" />
<path d="M694.3534883720939,-200 L700.4511627906986,-200 L700.4511627906986,-150 L694.3534883720939,-150 L694.3534883720939,-200 Z" fill="black" />
<path d="M700.4511627906986,-200 L706.5488372093033,-200 L706.5488372093033,-150 L700.4511627906986,-150 L700.4511627906986,-200 Z" fill="#f0f0f0" />
<path d="M706.5488372093033,-200 L712.646511627908,-200 L712.646511627908,-150 L706.5488372093033,-150 L706.5488372093033,-200 Z" fill="black" />
<path d="M712.646511627908,-200 L718.7441860465127,-200 L718.7441860465127,-150 L712.646511627908,-150 L712.646511627908,-200 Z" fill="#f0f0f0" />
<path d="M718.7441860465127,-200 L724.8418604651174,-200 L724.8418604651174,-150 L718.7441860465127,-150 L718.7441860465127,-200 Z" fill="black" />
<path d="M724.8418604651174,-200 L730.9395348837221,-200 L730.9395348837221,-150 L724.8418604651174,-150 L724.8418604651174,-200 Z" fill="#f0f0f0" />
<path d="M730.9395348837221,-200 L737.0372093023268,-200 L737.0372093023268,-150 L730.9395348837221,-150 L730.9395348837221,-200 Z" fill="black" />
<path d="M737.0372093023268,-200 L743.1348837209315,-200 L743.1348837209315,-150 L737.0372093023268,-150 L737.0372093023268,-200 Z" fill="#f0f0f0" />
<path d="M743.1348837209315,-200 L749.2325581395362,-200 L749.2325581395362,-150 L743.1348837209315,-150 L743.1348837209315,-200 Z" fill="black" />
<path d="M749.2325581395362,-200 L755.3302325581409,-200 L755.3302325581409,-150 L749.2325581395362,-150 L749.2325581395362,-200 Z" fill="#f0f0f0" />
<path d="M755.3302325581409,-200 L761.4279069767456,-200 L761.4279069767456,-150 L755.3302325581409,-150 L755.3302325581409,-200 Z" fill="black" />
<path d="M761.4279069767456,-200 L767.5255813953503,-200 L767.5255813953503,-150 L761.4279069767456,-150 L761.4279069767456,-200 Z" fill="#f0f0f0" />
<path d="M767.5255813953503,-200 L773.623255813955,-200 L773.623255813955,-150 L767.5255813953503,-150 L767.5255813953503,-200 Z" fill="black" />
<path d="M773.623255813955,-200 L779.7209302325597,-200 L779.7209302325597,-150 L773.623255813955,-150 L773.623255813955,-200 Z" fill="#f0f0f0" />
<path d="M779.7209302325597,-200 L785.8186046511644,-200 L785.8186046511644,-150 L779.7209302325597,-150 L779.7209302325597,-200 Z" fill="black" />
<path d="M785.8186046511644,-200 L791.9162790697691,-200 L791.9162790697691,-150 L785.8186046511644,-150 L785.8186046511644,-200 Z" fill="#f0f0f0" />
<path d="M791.9162790697691,-200 L798.0139534883738,-200 L798.0139534883738,-150 L791.9162790697691,-150 L791.9162790697691,-200 Z" fill="black" />
<path d="M798.0139534883738,-200 L804.1116279069785,-200 L804.1116279069785,-150 L798.0139534883738,-150 L798.0139534883738,-200 Z" fill="#f0f0f0" />
<path d="M804.1116279069785,-200 L810.2093023255832,-200 L810.2093023255832,-150 L804.1116279069785,-150 L804.1116279069785,-200 Z" fill="black" />
<path d="M810.2093023255832,-200 L816.3069767441879,-200 L816.3069767441879,-150 L810.2093023255832,-150 L810.2093023255832,-200 Z" fill="#f0f0f0" />
<path d="M816.3069767441879,-200 L822.4046511627926,-200 L822.4046511627926,-150 L816.3069767441879,-150 L816.3069767441879,-200 Z" fill="black" />
<path d="M822.4046511627926,-200 L828.5023255813973,-200 L828.5023255813973,-150 L822.4046511627926,-150 L822.4046511627926,-200 Z" fill="#f0f0f0" />
<path d="M828.5023255813973,-200 L834.600000000002,-200 L834.600000000002,-150 L828.5023255813973,-150 L828.5023255813973,-200 Z" fill="black" />
<text x="572.4" y="-210" font-size="26" fill="black" dy="0em">CRISPR: I-E</text>
<path d="M4060.8,-200 L4359.400000000001,-200 L4359.400000000001,-150 L4060.8,-150 L4060.8,-200 Z" fill="white" stroke="white" stroke-width="4" />
<path d="M4060.8,-200 L4066.8938775510205,-200 L4066.8938775510205,-150 L4060.8,-150 L4060.8,-200 Z" fill="black" />
<path d="M4066.8938775510205,-200 L4072.987755102041,-200 L4072.987755102041,-150 L4066.8938775510205,-150 L4066.8938775510205,-200 Z" fill="#f0f0f0" />
<path d="M4072.987755102041,-200 L4079.081632653061,-200 L4079.081632653061,-150 L4072.987755102041,-150 L4072.987755102041,-200 Z" fill="black" />
<path d="M4079.081632653061,-200 L4085.1755102040815,-200 L4085.1755102040815,-150 L4079.081632653061,-150 L4079.081632653061,-200 Z" fill="#f0f0f0" />
<path d="M4085.1755102040815,-200 L4091.269387755102,-200 L4091.269387755102,-150 L4085.1755102040815,-150 L4085.1755102040815,-200 Z" fill="black" />
<path d="M4091.269387755102,-200 L4097.363265306122,-200 L4097.363265306122,-150 L4091.269387755102,-150 L4091.269387755102,-200 Z" fill="#f0f0f0" />
<path d="M4097.363265306122,-200 L4103.457142857143,-200 L4103.457142857143,-150 L4097.363265306122,-150 L4097.363265306122,-200 Z" fill="black" />
<path d="M4103.457142857143,-200 L4109.551020408163,-200 L4109.551020408163,-150 L4103.457142857143,-150 L4103.457142857143,-200 Z" fill="#f0f0f0" />
<path d="M4109.551020408163,-200 L4115.644897959183,-200 L4115.644897959183,-150 L4109.551020408163,-150 L4109.551020408163,-200 Z" fill="black" />
<path d="M4115.644897959183,-200 L4121.738775510204,-200 L4121.738775510204,-150 L4115.644897959183,-150 L4115.644897959183,-200 Z" fill="#f0f0f0" />
<path d="M4121.738775510204,-200 L4127.832653061224,-200 L4127.832653061224,-150 L4121.738775510204,-150 L4121.738775510204,-200 Z" fill="black" />
<path d="M4127.832653061224,-200 L4133.926530612244,-200 L4133.926530612244,-150 L4127.832653061224,-150 L4127.832653061224,-200 Z" fill="#f0f0f0" />
<path d="M4133.926530612244,-200 L4140.020408163265,-200 L4140.020408163265,-150 L4133.926530612244,-150 L4133.926530612244,-200 Z" fill="black" />
<path d="M4140.020408163265,-200 L4146.114285714285,-200 L4146.114285714285,-150 L4140.020408163265,-150 L4140.020408163265,-200 Z" fill="#f0f0f0" />
<path d="M4146.114285714285,-200 L4152.208163265305,-200 L4152.208163265305,-150 L4146.114285714285,-150 L4146.114285714285,-200 Z" fill="black" />
<path d="M4152.208163265305,-200 L4158.302040816326,-200 L4158.302040816326,-150 L4152.208163265305,-150 L4152.208163265305,-200 Z" fill="#f0f0f0" />
<path d="M4158.302040816326,-200 L4164.395918367346,-200 L4164.395918367346,-150 L4158.302040816326,-150 L4158.302040816326,-200 Z" fill="black" />
<path d="M4164.395918367346,-200 L4170.489795918366,-200 L4170.489795918366,-150 L4164.395918367346,-150 L4164.395918367346,-200 Z" fill="#f0f0f0" />
<path d="M4170.489795918366,-200 L4176.583673469387,-200 L4176.583673469387,-150 L4170.489795918366,-150 L4170.489795918366,-200 Z" fill="black" />
<path d="M4176.583673469387,-200 L4182.677551020407,-200 L4182.677551020407,-150 L4176.583673469387,-150 L4176.583673469387,-200 Z" fill="#f0f0f0" />
<path d="M4182.677551020407,-200 L4188.771428571427,-200 L4188.771428571427,-150 L4182.677551020407,-150 L4182.677551020407,-200 Z" fill="black" />
<path d="M4188.771428571427,-200 L4194.865306122448,-200 L4194.865306122448,-150 L4188.771428571427,-150 L4188.771428571427,-200 Z" fill="#f0f0f0" />
<path d="M4194.865306122448,-200 L4200.959183673468,-200 L4200.959183673468,-150 L4194.865306122448,-150 L4194.865306122448,-200 Z" fill="black" />
<path d="M4200.959183673468,-200 L4207.053061224488,-200 L4207.053061224488,-150 L4200.959183673468,-150 L4200.959183673468,-200 Z" fill="#f0f0f0" />
<path d="M4207.053061224488,-200 L4213.146938775509,-200 L4213.146938775509,-150 L4207.053061224488,-150 L4207.053061224488,-200 Z" fill="black" />
<path d="M4213.146938775509,-200 L4219.240816326529,-200 L4219.240816326529,-150 L4213.146938775509,-150 L4213.146938775509,-200 Z" fill="#f0f0f0" />
<path d="M4219.240816326529,-200 L4225.334693877549,-200 L4225.334693877549,-150 L4219.240816326529,-150 L4219.240816326529,-200 Z" fill="black" />
<path d="M4225.334693877549,-200 L4231.42857142857,-200 L4231.42857142857,-150 L4225.334693877549,-150 L4225.334693877549,-200 Z" fill="#f0f0f0" />
<path d="M4231.42857142857,-200 L4237.52244897959,-200 L4237.52244897959,-150 L4231.42857142857,-150 L4231.42857142857,-200 Z" fill="black" />
<path d="M4237.52244897959,-200 L4243.61632653061,-200 L4243.61632653061,-150 L4237.52244897959,-150 L4237.52244897959,-200 Z" fill="#f0f0f0" />
<path d="M4243.61632653061,-200 L4249.710204081631,-200 L4249.710204081631,-150 L4243.61632653061,-150 L4243.61632653061,-200 Z" fill="black" />
<path d="M4249.710204081631,-200 L4255.804081632651,-200 L4255.804081632651,-150 L4249.710204081631,-150 L4249.710204081631,-200 Z" fill="#f0f0f0" />
<path d="M4255.804081632651,-200 L4261.897959183671,-200 L4261.897959183671,-150 L4255.804081632651,-150 L4255.804081632651,-200 Z" fill="black" />
<path d="M4261.897959183671,-200 L4267.991836734692,-200 L4267.991836734692,-150 L4261.897959183671,-150 L4261.897959183671,-200 Z" fill="#f0f0f0" />
<path d="M4267.991836734692,-200 L4274.085714285712,-200 L4274.085714285712,-150 L4267.991836734692,-150 L4267.991836734692,-200 Z" fill="black" />
<path d="M4274.085714285712,-200 L4280.1795918367325,-200 L4280.1795918367325,-150 L4274.085714285712,-150 L4274.085714285712,-200 Z" fill="#f0f0f0" />
<path d="M4280.1795918367325,-200 L4286.273469387753,-200 L4286.273469387753,-150 L4280.1795918367325,-150 L4280.1795918367325,-200 Z" fill="black" />
<path d="M4286.273469387753,-200 L4292.367346938773,-200 L4292.367346938773,-150 L4286.273469387753,-150 L4286.273469387753,-200 Z" fill="#f0f0f0" />
<path d="M4292.367346938773,-200 L4298.4612244897935,-200 L4298.4612244897935,-150 L4292.367346938773,-150 L4292.367346938773,-200 Z" fill="black" />
<path d="M4298.4612244897935,-200 L4304.555102040814,-200 L4304.555102040814,-150 L4298.4612244897935,-150 L4298.4612244897935,-200 Z" fill="#f0f0f0" />
<path d="M4304.555102040814,-200 L4310.648979591834,-200 L4310.648979591834,-150 L4304.555102040814,-150 L4304.555102040814,-200 Z" fill="black" />
<path d="M4310.648979591834,-200 L4316.7428571428545,-200 L4316.7428571428545,-150 L4310.648979591834,-150 L4310.648979591834,-200 Z" fill="#f0f0f0" />
<path d="M4316.7428571428545,-200 L4322.836734693875,-200 L4322.836734693875,-150 L4316.7428571428545,-150 L4316.7428571428545,-200 Z" fill="black" />
<path d="M4322.836734693875,-200 L4328.930612244895,-200 L4328.930612244895,-150 L4322.836734693875,-150 L4322.836734693875,-200 Z" fill="#f0f0f0" />
<path d="M4328.930612244895,-200 L4335.0244897959155,-200 L4335.0244897959155,-150 L4328.930612244895,-150 L4328.930612244895,-200 Z" fill="black" />
<path d="M4335.0244897959155,-200 L4341.118367346936,-200 L4341.118367346936,-150 L4335.0244897959155,-150 L4335.0244897959155,-200 Z" fill="#f0f0f0" />
<path d="M4341.118367346936,-200 L4347.212244897956,-200 L4347.212244897956,-150 L4341.118367346936,-150 L4341.118367346936,-200 Z" fill="black" />
<path d="M4347.212244897956,-200 L4353.306122448977,-200 L4353.306122448977,-150 L4347.212244897956,-150 L4347.212244897956,-200 Z" fill="#f0f0f0" />
<path d="M4353.306122448977,-200 L4359.399999999997,-200 L4359.399999999997,-150 L4353.306122448977,-150 L4353.306122448977,-200 Z" fill="black" />
<text x="4060.8" y="-210" font-size="26" fill="black" dy="0em">CRISPR: I-E</text>
</svg>